<?xml version="1.0" encoding="UTF-8" standalone="no"?>
<svg width="308px" height="292px" viewBox="0 0 308 292" version="1.1" xmlns="http://www.w3.org/2000/svg" xmlns:xlink="http://www.w3.org/1999/xlink" xmlns:sketch="http://www.bohemiancoding.com/sketch/ns">
    <!-- Generator: Sketch 3.4.2 (15855) - http://www.bohemiancoding.com/sketch -->
    <title>Slice 1</title>
    <desc>Created with Sketch.</desc>
    <defs></defs>
    <g id="Page-1" stroke="none" stroke-width="1" fill="none" fill-rule="evenodd" sketch:type="MSPage">
        <path d="M58.9335938,122.191406 C112.182292,122.191406 165.44483,120.977428 218.679688,122.191406 C241.660008,122.715454 276.429064,147.579015 287.441406,127.402344 C297.69525,108.615384 254.402823,100.158818 238.558594,85.7695313 C231.830287,79.6590705 225.662373,72.9260494 219.804688,65.9765625 C205.158958,48.6010462 191.804105,30.1612692 177.089844,12.84375 C174.748656,10.0883578 171.955108,7.5868225 168.757812,5.8984375 C165.684512,4.27553048 158.185477,7.93691996 156.644531,9.0234375 C140.693923,20.2701746 124.827477,31.6906451 109.761719,44.0976563 C83.4762072,65.744402 58.0816775,88.4571769 32.6679688,111.121094 C27.0470419,116.13383 20.3016937,120.487954 16.6914063,127.097656 C15.5329452,129.218563 21.5490968,127.439903 23.9414063,127.097656 C36.1495251,125.351146 48.1135612,121.832823 60.40625,120.84375 C78.4099821,119.395165 96.5284937,119.254641 114.582031,119.804688 C149.865823,120.879697 231.058957,149.122532 240.296875,151.40625 C248.437701,153.418755 256.919789,153.89691 265.300781,154.183594 C273.869228,154.47669 283.391061,149.189901 291,153.140625 C296.450472,155.970627 279.029122,156.067882 273.328125,158.351562 C268.568527,160.258142 264.48246,163.589255 259.785156,165.644531 C253.343509,168.463035 246.435364,170.122495 239.992188,172.9375 C210.652219,185.756047 181.392147,198.778238 152.476562,212.527344 C110.538257,232.468638 68.8103683,252.868429 27.4570313,273.996094 C21.6702131,276.952613 13.9005977,290.618212 11.1757813,284.71875 C-3.61388803,252.697846 13.8558383,251.195745 14.3007813,229.542969 C14.9161581,199.596166 13.7706256,169.632027 14.3007813,139.683594 C14.3510198,136.845622 15.1163243,134.0319 16.0390625,131.347656 C16.4152007,130.253471 16.9719835,128.705468 18.1210938,128.570312 C48.335534,125.016555 77.4882928,141.909884 103.207031,155.65625 C143.556972,177.222823 187.18333,197.28946 224.058594,224.765625 C235.539528,233.320196 245.412677,244.01398 257.394531,251.851562 C263.997279,256.170558 271.653331,258.837336 279.273438,260.882812 C283.061221,261.899573 287.338149,259.58499 291.039062,260.882812 C299.437664,263.828002 308.530267,269.558656 296.945312,273.035156 C288.716459,275.504532 280.461248,278.182649 271.941406,279.289062 C253.6366,281.666183 235.178607,283.145665 216.722656,283.453125 C151.818901,284.534364 86.8971354,283.453125 21.984375,283.453125" id="Path-1" stroke="#310101" stroke-width="10" sketch:type="MSShapeGroup"></path>
    </g>
</svg>