<?xml version="1.0" encoding="UTF-8" standalone="no"?>
<svg width="2212px" height="614px" viewBox="0 0 2212 614" version="1.1" xmlns="http://www.w3.org/2000/svg" xmlns:xlink="http://www.w3.org/1999/xlink" xmlns:sketch="http://www.bohemiancoding.com/sketch/ns">
    <!-- Generator: Sketch 3.4.2 (15855) - http://www.bohemiancoding.com/sketch -->
    <title>Slice 1</title>
    <desc>Created with Sketch.</desc>
    <defs></defs>
    <g id="Page-1" stroke="none" stroke-width="1" fill="none" fill-rule="evenodd" sketch:type="MSPage">
        <g id="Line" sketch:type="MSLayerGroup" transform="translate(-6.000000, -7.391861)" stroke-width="11" stroke="#000000" stroke-linecap="square">
            <path d="M0.505715592,612.421582 L65.3179691,524.038743 L101.597528,428.788254 L137.838423,414.658772 L184.385376,408.163249 L216.755592,409.26302 L257.958345,415.758544 L305.132512,418.048301 L348.487551,438.338219 L415.90438,430.790181 L471.911083,412.50219 L509.294709,415.560928 L578.906784,425.824027 L626.802675,399.090138 L671.820259,381.523872 L704.242027,371.303733 L715.699408,329.048465 L748.15984,305.79432 L791.274304,301.884977 L830.135747,299.255837 L845.751638,305.747064 L899.799374,315.726628 L908.627615,286.745941 L913.976111,278.007916 L960.724975,252.511269 L1017.17416,236.942634 L1072.30878,217.756783 L1106.88284,202.995793 L1135.09884,214.075128 L1157.49379,218.749155 L1229.12927,190.808095 L1273.80747,176.523958 L1344.79856,150.88984 L1412.69224,123.773609 L1526.69469,122.291495 L1606.03286,131.931676 L1708.10107,119.42178 L1789.44977,112.453699 L1868.64617,93.8778775 L1994.63441,61.2155346 L2080.29197,31.5088266 L2139.21564,6.77686448 L2211.35376,0.663683639" sketch:type="MSShapeGroup"></path>
        </g>
    </g>
</svg>