<?xml version="1.0" encoding="UTF-8" standalone="no"?>
<svg width="5008px" height="1390px" viewBox="0 0 5008 1390" version="1.1" xmlns="http://www.w3.org/2000/svg" xmlns:xlink="http://www.w3.org/1999/xlink" xmlns:sketch="http://www.bohemiancoding.com/sketch/ns">
    <!-- Generator: Sketch 3.4.2 (15855) - http://www.bohemiancoding.com/sketch -->
    <title>Slice 1</title>
    <desc>Created with Sketch.</desc>
    <defs></defs>
    <g id="Page-1" stroke="none" stroke-width="1" fill="none" fill-rule="evenodd" sketch:type="MSPage">
        <g id="Line" sketch:type="MSLayerGroup" transform="translate(-6.000000, -7.391861)" stroke-width="11" stroke="#000000" stroke-linecap="square">
            <path d="M1.14311843,1384.31642 L147.644596,1184.53604 L229.650832,969.232038 L311.569672,937.29379 L416.784304,922.611323 L489.953871,925.097243 L583.088484,939.77971 L689.720867,944.955473 L787.720504,990.81876 L940.109357,973.75719 L1066.70679,932.419055 L1151.20865,939.333021 L1308.55964,962.531706 L1416.82341,902.102481 L1518.58106,862.395732 L1591.86715,839.294153 L1617.76539,743.780436 L1691.13888,691.216818 L1788.59472,682.380148 L1876.43704,676.437245 L1911.73517,691.110001 L2033.90455,713.667785 L2053.85989,648.159902 L2065.94962,628.408489 L2171.62065,570.775924 L2299.21827,535.584616 L2423.84445,492.21696 L2501.99557,458.85125 L2565.77496,483.894954 L2616.39645,494.460115 L2778.32114,431.302204 L2879.31165,399.014372 L3039.77974,341.071068 L3193.24647,279.777597 L3450.93735,276.427431 L3630.27319,298.218075 L3860.98795,269.940733 L4044.86837,254.190097 L4223.88376,212.201351 L4508.66728,138.371462 L4702.28745,71.2224833 L4835.4784,15.3184098 L4998.53923,1.50018906" sketch:type="MSShapeGroup"></path>
        </g>
    </g>
</svg>