<?xml version="1.0" encoding="UTF-8" standalone="no"?>
<svg width="600px" height="167px" viewBox="0 0 600 167" version="1.1" xmlns="http://www.w3.org/2000/svg" xmlns:xlink="http://www.w3.org/1999/xlink" xmlns:sketch="http://www.bohemiancoding.com/sketch/ns">
    <!-- Generator: Sketch 3.4.2 (15855) - http://www.bohemiancoding.com/sketch -->
    <title>Slice 1</title>
    <desc>Created with Sketch.</desc>
    <defs></defs>
    <g id="Page-1" stroke="none" stroke-width="1" fill="none" fill-rule="evenodd" sketch:type="MSPage">
        <g id="Line" sketch:type="MSLayerGroup" stroke-width="11" stroke="#000000" stroke-linecap="square">
            <path d="M0.137174211,166.11797 L17.7173515,142.144324 L27.5580998,116.307845 L37.3883607,112.475255 L50.0141165,110.713359 L58.7944645,111.011669 L69.9706181,112.773565 L82.7665041,113.394657 L94.5264605,118.898251 L112.813123,116.850863 L128.004815,111.890287 L138.145039,112.719963 L157.027156,115.503805 L170.018809,108.252298 L182.229727,103.487488 L191.024058,100.715298 L194.131847,89.2536523 L202.936665,82.9460181 L214.631366,81.8856178 L225.172445,81.1724694 L229.40822,82.9332001 L244.068546,85.6401342 L246.463187,77.7791883 L247.913954,75.4090187 L260.594478,68.4931109 L275.906193,64.2701539 L290.861334,59.0660352 L300.239468,55.0621499 L307.892995,58.0673945 L313.967574,59.3352138 L333.398536,51.7562644 L345.517398,47.8817247 L364.773569,40.9285281 L383.189577,33.5733116 L414.112482,33.1712917 L435.632783,35.786169 L463.318555,32.3928879 L485.384204,30.5028117 L506.866051,25.4641621 L541.040074,16.6045754 L564.274494,8.546698 L580.257408,1.83820917 L599.824708,0.180022687" sketch:type="MSShapeGroup"></path>
        </g>
    </g>
</svg>